<svg width="92" height="15" viewBox="0 0 92 15" fill="none" xmlns="http://www.w3.org/2000/svg">
<path d="M12.05 1.4V14H9.134V8.834H3.41V14H0.494V1.4H3.41V6.368H9.134V1.4H12.05ZM18.7391 4.172C20.2391 4.172 21.3911 4.532 22.1951 5.252C22.9991 5.96 23.4011 7.034 23.4011 8.474V14H20.7731V12.794C20.2451 13.694 19.2611 14.144 17.8211 14.144C17.0771 14.144 16.4291 14.018 15.8771 13.766C15.3371 13.514 14.9231 13.166 14.6351 12.722C14.3471 12.278 14.2031 11.774 14.2031 11.21C14.2031 10.31 14.5391 9.602 15.2111 9.086C15.8951 8.57 16.9451 8.312 18.3611 8.312H20.5931C20.5931 7.7 20.4071 7.232 20.0351 6.908C19.6631 6.572 19.1051 6.404 18.3611 6.404C17.8451 6.404 17.3351 6.488 16.8311 6.656C16.3391 6.812 15.9191 7.028 15.5711 7.304L14.5631 5.342C15.0911 4.97 15.7211 4.682 16.4531 4.478C17.1971 4.274 17.9591 4.172 18.7391 4.172ZM18.5231 12.254C19.0031 12.254 19.4291 12.146 19.8011 11.93C20.1731 11.702 20.4371 11.372 20.5931 10.94V9.95H18.6671C17.5151 9.95 16.9391 10.328 16.9391 11.084C16.9391 11.444 17.0771 11.732 17.3531 11.948C17.6411 12.152 18.0311 12.254 18.5231 12.254ZM31.8285 4.172C33.0285 4.172 33.9945 4.532 34.7265 5.252C35.4705 5.972 35.8425 7.04 35.8425 8.456V14H33.0345V8.888C33.0345 8.12 32.8665 7.55 32.5305 7.178C32.1945 6.794 31.7085 6.602 31.0725 6.602C30.3645 6.602 29.8005 6.824 29.3805 7.268C28.9605 7.7 28.7505 8.348 28.7505 9.212V14H25.9425V4.316H28.6245V5.45C28.9965 5.042 29.4585 4.73 30.0105 4.514C30.5625 4.286 31.1685 4.172 31.8285 4.172ZM42.2938 4.172C43.7938 4.172 44.9458 4.532 45.7498 5.252C46.5538 5.96 46.9558 7.034 46.9558 8.474V14H44.3278V12.794C43.7998 13.694 42.8158 14.144 41.3758 14.144C40.6318 14.144 39.9838 14.018 39.4318 13.766C38.8918 13.514 38.4778 13.166 38.1898 12.722C37.9018 12.278 37.7578 11.774 37.7578 11.21C37.7578 10.31 38.0938 9.602 38.7658 9.086C39.4498 8.57 40.4998 8.312 41.9158 8.312H44.1478C44.1478 7.7 43.9618 7.232 43.5898 6.908C43.2178 6.572 42.6598 6.404 41.9158 6.404C41.3998 6.404 40.8898 6.488 40.3858 6.656C39.8938 6.812 39.4738 7.028 39.1258 7.304L38.1178 5.342C38.6458 4.97 39.2758 4.682 40.0078 4.478C40.7518 4.274 41.5138 4.172 42.2938 4.172ZM42.0778 12.254C42.5578 12.254 42.9838 12.146 43.3558 11.93C43.7278 11.702 43.9918 11.372 44.1478 10.94V9.95H42.2218C41.0698 9.95 40.4938 10.328 40.4938 11.084C40.4938 11.444 40.6318 11.732 40.9078 11.948C41.1958 12.152 41.5858 12.254 42.0778 12.254ZM52.7552 14.144C51.9512 14.144 51.1652 14.048 50.3972 13.856C49.6292 13.652 49.0172 13.4 48.5612 13.1L49.4972 11.084C49.9292 11.36 50.4512 11.588 51.0632 11.768C51.6752 11.936 52.2752 12.02 52.8632 12.02C54.0512 12.02 54.6452 11.726 54.6452 11.138C54.6452 10.862 54.4832 10.664 54.1592 10.544C53.8352 10.424 53.3372 10.322 52.6652 10.238C51.8732 10.118 51.2192 9.98 50.7032 9.824C50.1872 9.668 49.7372 9.392 49.3532 8.996C48.9812 8.6 48.7952 8.036 48.7952 7.304C48.7952 6.692 48.9692 6.152 49.3172 5.684C49.6772 5.204 50.1932 4.832 50.8652 4.568C51.5492 4.304 52.3532 4.172 53.2772 4.172C53.9612 4.172 54.6392 4.25 55.3112 4.406C55.9952 4.55 56.5592 4.754 57.0032 5.018L56.0672 7.016C55.2152 6.536 54.2852 6.296 53.2772 6.296C52.6772 6.296 52.2272 6.38 51.9272 6.548C51.6272 6.716 51.4772 6.932 51.4772 7.196C51.4772 7.496 51.6392 7.706 51.9632 7.826C52.2872 7.946 52.8032 8.06 53.5112 8.168C54.3032 8.3 54.9512 8.444 55.4552 8.6C55.9592 8.744 56.3972 9.014 56.7692 9.41C57.1412 9.806 57.3272 10.358 57.3272 11.066C57.3272 11.666 57.1472 12.2 56.7872 12.668C56.4272 13.136 55.8992 13.502 55.2032 13.766C54.5192 14.018 53.7032 14.144 52.7552 14.144ZM62.9657 4.172C64.4657 4.172 65.6177 4.532 66.4217 5.252C67.2257 5.96 67.6277 7.034 67.6277 8.474V14H64.9997V12.794C64.4717 13.694 63.4877 14.144 62.0477 14.144C61.3037 14.144 60.6557 14.018 60.1037 13.766C59.5637 13.514 59.1497 13.166 58.8617 12.722C58.5737 12.278 58.4297 11.774 58.4297 11.21C58.4297 10.31 58.7657 9.602 59.4377 9.086C60.1217 8.57 61.1717 8.312 62.5877 8.312H64.8197C64.8197 7.7 64.6337 7.232 64.2617 6.908C63.8897 6.572 63.3317 6.404 62.5877 6.404C62.0717 6.404 61.5617 6.488 61.0577 6.656C60.5657 6.812 60.1457 7.028 59.7977 7.304L58.7897 5.342C59.3177 4.97 59.9477 4.682 60.6797 4.478C61.4237 4.274 62.1857 4.172 62.9657 4.172ZM62.7497 12.254C63.2297 12.254 63.6557 12.146 64.0277 11.93C64.3997 11.702 64.6637 11.372 64.8197 10.94V9.95H62.8937C61.7417 9.95 61.1657 10.328 61.1657 11.084C61.1657 11.444 61.3037 11.732 61.5797 11.948C61.8677 12.152 62.2577 12.254 62.7497 12.254ZM74.327 10.202L72.977 11.534V14H70.169V0.643999H72.977V8.204L77.081 4.316H80.429L76.397 8.42L80.789 14H77.387L74.327 10.202ZM91.6321 4.316V14H88.9681V12.848C88.5961 13.268 88.1521 13.592 87.6361 13.82C87.1201 14.036 86.5621 14.144 85.9621 14.144C84.6901 14.144 83.6821 13.778 82.9381 13.046C82.1941 12.314 81.8221 11.228 81.8221 9.788V4.316H84.6301V9.374C84.6301 10.934 85.2841 11.714 86.5921 11.714C87.2641 11.714 87.8041 11.498 88.2121 11.066C88.6201 10.622 88.8241 9.968 88.8241 9.104V4.316H91.6321Z" fill="white"/>
</svg>
