<svg width="22" height="21" viewBox="0 0 22 21" fill="none" xmlns="http://www.w3.org/2000/svg">
<path d="M21.1836 10.3428L11.5297 1.09788C11.4602 1.03114 11.3776 0.978185 11.2867 0.942055C11.1958 0.905926 11.0984 0.887329 11 0.887329C10.9016 0.887329 10.8042 0.905926 10.7133 0.942055C10.6224 0.978185 10.5398 1.03114 10.4703 1.09788L0.816403 10.3428C0.535153 10.6123 0.375778 10.9784 0.375778 11.3603C0.375778 12.1532 1.04843 12.7978 1.87578 12.7978H2.89296V19.3946C2.89296 19.7921 3.22812 20.1133 3.64296 20.1133H9.49999V15.0821H12.125V20.1133H18.357C18.7719 20.1133 19.107 19.7921 19.107 19.3946V12.7978H20.1242C20.5226 12.7978 20.9047 12.6473 21.1859 12.3755C21.7695 11.814 21.7695 10.9043 21.1836 10.3428Z" fill="white"/>
</svg>
