<svg width="25" height="25" viewBox="0 0 25 25" fill="none" xmlns="http://www.w3.org/2000/svg">
<rect x="-2" y="-2" width="30" height="30" rx="5" fill="white"/>
<path d="M9.84374 18.875H15.1562C15.5104 18.875 15.6875 19.0521 15.6875 19.4062C15.6875 19.7604 15.5104 19.9375 15.1562 19.9375H9.84374C9.48958 19.9375 9.31249 19.7604 9.31249 19.4062C9.31249 19.0521 9.48958 18.875 9.84374 18.875ZM9.10212 6.125L7.44993 13.5625H17.5501L15.8979 6.125H9.10212ZM8.67712 5.0625H16.3239C16.4449 5.06255 16.5621 5.10385 16.6564 5.17958C16.7507 5.25531 16.8163 5.36093 16.8424 5.479L18.7316 13.979C18.7487 14.0566 18.7483 14.1371 18.7302 14.2145C18.7121 14.2919 18.6769 14.3643 18.6271 14.4263C18.5774 14.4883 18.5144 14.5383 18.4427 14.5727C18.371 14.6071 18.2925 14.625 18.2131 14.625H6.78693C6.70744 14.625 6.62897 14.6071 6.5573 14.5727C6.48563 14.5383 6.42259 14.4883 6.37284 14.4263C6.32308 14.3643 6.28787 14.2919 6.2698 14.2145C6.25173 14.1371 6.25126 14.0566 6.26843 13.979L8.15756 5.479C8.18368 5.36093 8.24929 5.25531 8.34357 5.17958C8.43784 5.10385 8.55513 5.06255 8.67606 5.0625H8.67712Z" fill="black"/>
<path d="M15.1562 13.5625C15.5104 13.5625 15.6875 13.7396 15.6875 14.0938V16.2188C15.6875 16.5729 15.5104 16.75 15.1562 16.75C14.8021 16.75 14.625 16.5729 14.625 16.2188V14.0938C14.625 13.7396 14.8021 13.5625 15.1562 13.5625ZM11.9688 13.5615H13.0312V19.9375H11.9688V13.5615Z" fill="black"/>
</svg>
