<svg width="8" height="15" viewBox="0 0 8 15" fill="none" xmlns="http://www.w3.org/2000/svg">
<path d="M6.83001 15C6.68062 15.0005 6.53301 14.9675 6.39803 14.9035C6.26305 14.8394 6.14413 14.746 6.05001 14.63L1.22001 8.62997C1.07293 8.45104 0.992523 8.2266 0.992523 7.99497C0.992523 7.76335 1.07293 7.5389 1.22001 7.35997L6.22001 1.35997C6.38975 1.15575 6.63366 1.02733 6.89809 1.00295C7.16251 0.97857 7.42579 1.06023 7.63001 1.22997C7.83423 1.39971 7.96265 1.64362 7.98703 1.90805C8.01141 2.17247 7.92975 2.43575 7.76001 2.63997L3.29001 7.99997L7.61001 13.36C7.73229 13.5068 7.80997 13.6855 7.83385 13.875C7.85773 14.0646 7.82681 14.257 7.74476 14.4295C7.6627 14.6021 7.53294 14.7475 7.37083 14.8486C7.20872 14.9497 7.02104 15.0022 6.83001 15Z" fill="white"/>
</svg>
