<svg width="137" height="33" viewBox="0 0 137 33" fill="none" xmlns="http://www.w3.org/2000/svg">
<path d="M56.05 9.4V22H53.134V16.834H47.41V22H44.494V9.4H47.41V14.368H53.134V9.4H56.05ZM62.7391 12.172C64.2391 12.172 65.3911 12.532 66.1951 13.252C66.9991 13.96 67.4011 15.034 67.4011 16.474V22H64.7731V20.794C64.2451 21.694 63.2611 22.144 61.8211 22.144C61.0771 22.144 60.4291 22.018 59.8771 21.766C59.3371 21.514 58.9231 21.166 58.6351 20.722C58.3471 20.278 58.2031 19.774 58.2031 19.21C58.2031 18.31 58.5391 17.602 59.2111 17.086C59.8951 16.57 60.9451 16.312 62.3611 16.312H64.5931C64.5931 15.7 64.4071 15.232 64.0351 14.908C63.6631 14.572 63.1051 14.404 62.3611 14.404C61.8451 14.404 61.3351 14.488 60.8311 14.656C60.3391 14.812 59.9191 15.028 59.5711 15.304L58.5631 13.342C59.0911 12.97 59.7211 12.682 60.4531 12.478C61.1971 12.274 61.9591 12.172 62.7391 12.172ZM62.5231 20.254C63.0031 20.254 63.4291 20.146 63.8011 19.93C64.1731 19.702 64.4371 19.372 64.5931 18.94V17.95H62.6671C61.5151 17.95 60.9391 18.328 60.9391 19.084C60.9391 19.444 61.0771 19.732 61.3531 19.948C61.6411 20.152 62.0311 20.254 62.5231 20.254ZM75.8285 12.172C77.0285 12.172 77.9945 12.532 78.7265 13.252C79.4705 13.972 79.8425 15.04 79.8425 16.456V22H77.0345V16.888C77.0345 16.12 76.8665 15.55 76.5305 15.178C76.1945 14.794 75.7085 14.602 75.0725 14.602C74.3645 14.602 73.8005 14.824 73.3805 15.268C72.9605 15.7 72.7505 16.348 72.7505 17.212V22H69.9425V12.316H72.6245V13.45C72.9965 13.042 73.4585 12.73 74.0105 12.514C74.5625 12.286 75.1685 12.172 75.8285 12.172ZM86.2938 12.172C87.7938 12.172 88.9458 12.532 89.7498 13.252C90.5538 13.96 90.9558 15.034 90.9558 16.474V22H88.3278V20.794C87.7998 21.694 86.8158 22.144 85.3758 22.144C84.6318 22.144 83.9838 22.018 83.4318 21.766C82.8918 21.514 82.4778 21.166 82.1898 20.722C81.9018 20.278 81.7578 19.774 81.7578 19.21C81.7578 18.31 82.0938 17.602 82.7658 17.086C83.4498 16.57 84.4998 16.312 85.9158 16.312H88.1478C88.1478 15.7 87.9618 15.232 87.5898 14.908C87.2178 14.572 86.6598 14.404 85.9158 14.404C85.3998 14.404 84.8898 14.488 84.3858 14.656C83.8938 14.812 83.4738 15.028 83.1258 15.304L82.1178 13.342C82.6458 12.97 83.2758 12.682 84.0078 12.478C84.7518 12.274 85.5138 12.172 86.2938 12.172ZM86.0778 20.254C86.5578 20.254 86.9838 20.146 87.3558 19.93C87.7278 19.702 87.9918 19.372 88.1478 18.94V17.95H86.2218C85.0698 17.95 84.4938 18.328 84.4938 19.084C84.4938 19.444 84.6318 19.732 84.9078 19.948C85.1958 20.152 85.5858 20.254 86.0778 20.254ZM96.7552 22.144C95.9512 22.144 95.1652 22.048 94.3972 21.856C93.6292 21.652 93.0172 21.4 92.5612 21.1L93.4972 19.084C93.9292 19.36 94.4512 19.588 95.0632 19.768C95.6752 19.936 96.2752 20.02 96.8632 20.02C98.0512 20.02 98.6452 19.726 98.6452 19.138C98.6452 18.862 98.4832 18.664 98.1592 18.544C97.8352 18.424 97.3372 18.322 96.6652 18.238C95.8732 18.118 95.2192 17.98 94.7032 17.824C94.1872 17.668 93.7372 17.392 93.3532 16.996C92.9812 16.6 92.7952 16.036 92.7952 15.304C92.7952 14.692 92.9692 14.152 93.3172 13.684C93.6772 13.204 94.1932 12.832 94.8652 12.568C95.5492 12.304 96.3532 12.172 97.2772 12.172C97.9612 12.172 98.6392 12.25 99.3112 12.406C99.9952 12.55 100.559 12.754 101.003 13.018L100.067 15.016C99.2152 14.536 98.2852 14.296 97.2772 14.296C96.6772 14.296 96.2272 14.38 95.9272 14.548C95.6272 14.716 95.4772 14.932 95.4772 15.196C95.4772 15.496 95.6392 15.706 95.9632 15.826C96.2872 15.946 96.8032 16.06 97.5112 16.168C98.3032 16.3 98.9512 16.444 99.4552 16.6C99.9592 16.744 100.397 17.014 100.769 17.41C101.141 17.806 101.327 18.358 101.327 19.066C101.327 19.666 101.147 20.2 100.787 20.668C100.427 21.136 99.8992 21.502 99.2032 21.766C98.5192 22.018 97.7032 22.144 96.7552 22.144ZM106.966 12.172C108.466 12.172 109.618 12.532 110.422 13.252C111.226 13.96 111.628 15.034 111.628 16.474V22H109V20.794C108.472 21.694 107.488 22.144 106.048 22.144C105.304 22.144 104.656 22.018 104.104 21.766C103.564 21.514 103.15 21.166 102.862 20.722C102.574 20.278 102.43 19.774 102.43 19.21C102.43 18.31 102.766 17.602 103.438 17.086C104.122 16.57 105.172 16.312 106.588 16.312H108.82C108.82 15.7 108.634 15.232 108.262 14.908C107.89 14.572 107.332 14.404 106.588 14.404C106.072 14.404 105.562 14.488 105.058 14.656C104.566 14.812 104.146 15.028 103.798 15.304L102.79 13.342C103.318 12.97 103.948 12.682 104.68 12.478C105.424 12.274 106.186 12.172 106.966 12.172ZM106.75 20.254C107.23 20.254 107.656 20.146 108.028 19.93C108.4 19.702 108.664 19.372 108.82 18.94V17.95H106.894C105.742 17.95 105.166 18.328 105.166 19.084C105.166 19.444 105.304 19.732 105.58 19.948C105.868 20.152 106.258 20.254 106.75 20.254ZM118.327 18.202L116.977 19.534V22H114.169V8.644H116.977V16.204L121.081 12.316H124.429L120.397 16.42L124.789 22H121.387L118.327 18.202ZM135.632 12.316V22H132.968V20.848C132.596 21.268 132.152 21.592 131.636 21.82C131.12 22.036 130.562 22.144 129.962 22.144C128.69 22.144 127.682 21.778 126.938 21.046C126.194 20.314 125.822 19.228 125.822 17.788V12.316H128.63V17.374C128.63 18.934 129.284 19.714 130.592 19.714C131.264 19.714 131.804 19.498 132.212 19.066C132.62 18.622 132.824 17.968 132.824 17.104V12.316H135.632Z" fill="white"/>
<g clip-path="url(#clip0_183_3)">
<path d="M16.5 0H16.3914C14.1089 0 11.9378 0.479875 9.97429 1.34475L10.076 1.30488C8.12333 2.14424 6.34683 3.34506 4.84004 4.84413C3.36684 6.32099 2.18155 8.05929 1.34479 9.97013L1.30216 10.0788C0.435808 12.0692 -0.00760149 14.2179 3.59742e-05 16.3886V16.5069V16.5014V16.61C3.59742e-05 18.8925 0.479911 21.0636 1.34479 23.0271L1.30491 22.9254C2.14381 24.8773 3.34366 26.6532 4.84141 28.16C6.31879 29.6332 8.05754 30.8185 9.96879 31.6553L10.0774 31.6979C11.9392 32.5229 14.1103 33.0028 16.3928 33.0028H16.5069H16.5014H16.61C18.8925 33.0028 21.0637 32.5229 23.0272 31.658L22.9254 31.6979C24.8784 30.8589 26.6553 29.6585 28.1628 28.16C29.636 26.6831 30.8213 24.9448 31.658 23.034L31.7007 22.9254C32.5257 21.0636 33.0055 18.8939 33.0055 16.61V16.4959V16.3928C33.0055 14.1103 32.5257 11.9391 31.6608 9.97563L31.7007 10.0774C30.8609 8.12603 29.6606 6.35058 28.1628 4.84413C26.6859 3.37092 24.9476 2.18564 23.0368 1.34888L22.9282 1.30625C21.0664 0.48125 18.8939 0 16.61 0H16.4959H16.5014H16.5ZM17.38 31.3363V28.4666L24.5204 24.8463C24.6043 24.8051 24.6769 24.7442 24.7322 24.6689L24.7335 24.6675C24.7867 24.5903 24.815 24.4986 24.8147 24.4049V24.3898V24.3911V22.7604C25.124 22.6476 25.3812 22.4496 25.5613 22.1939L25.564 22.1884C25.7469 21.9423 25.8583 21.6329 25.8583 21.2974V21.1351C25.8248 20.7423 25.6452 20.3763 25.355 20.1094L25.3537 20.108C25.0748 19.845 24.7057 19.6989 24.3224 19.6996H24.2922H24.2935H24.266C23.8425 19.6996 23.4589 19.8743 23.1853 20.1561C22.9034 20.4311 22.7288 20.8134 22.7288 21.2383V21.2671V21.2658V21.3469C22.7315 21.3881 22.7439 21.4253 22.7618 21.4583V21.4569C22.7797 21.7621 22.8938 22.0385 23.0739 22.2585L23.0725 22.2558C23.2554 22.4799 23.4905 22.6531 23.7614 22.7563L23.7724 22.7604V24.0653L17.38 27.3268V24.6565L20.1837 23.3516C20.2709 23.3078 20.3485 23.2471 20.4119 23.1729L20.4133 23.1715C20.4764 23.0969 20.511 23.0024 20.5109 22.9048V18.4594L25.7263 15.5251C25.8105 15.4832 25.879 15.4152 25.9215 15.3313L25.9229 15.3285C25.9652 15.2484 25.9873 15.1592 25.9875 15.0686V13.8298C26.2942 13.7211 26.5499 13.53 26.7342 13.2839L26.7369 13.2798C26.9198 13.0364 27.0312 12.7284 27.0312 12.3943V12.3654V12.3393C27.0312 11.9158 26.8565 11.5321 26.5747 11.2585C26.4374 11.114 26.2721 10.9989 26.0889 10.9204C25.9057 10.8419 25.7084 10.8016 25.509 10.802H25.3C24.9223 10.8391 24.5731 11.0191 24.3238 11.3053L24.3224 11.3066C24.0694 11.5883 23.9298 11.9538 23.9305 12.3324V12.3668V12.3654V12.3929C23.9305 12.727 24.0405 13.0336 24.2275 13.2811L24.2248 13.277C24.4132 13.5273 24.6675 13.7184 24.9645 13.8229L24.9755 13.827V14.773L19.7258 17.7073C19.6565 17.7552 19.5964 17.8153 19.5484 17.8846L19.547 17.8874C19.4979 17.9626 19.4716 18.0505 19.4714 18.1404V18.1638V18.1624V22.5624L17.3814 23.54V13.9535L21.7814 11.8003C21.8682 11.7565 21.9411 11.6894 21.9918 11.6064L21.9932 11.6036C22.0449 11.5267 22.0731 11.4364 22.0743 11.3438V9.68C22.3809 9.57138 22.6367 9.38025 22.8209 9.13413L22.8237 9.13C23.0065 8.88663 23.1179 8.57863 23.1179 8.2445V8.21563V8.217V8.13588V8.13313C23.118 8.1185 23.1152 8.10401 23.1095 8.09053C23.1038 8.07705 23.0955 8.06487 23.0849 8.05475C23.0449 7.6744 22.8657 7.32227 22.5817 7.06613L22.5803 7.06475C22.3079 6.80205 21.944 6.6556 21.5655 6.65638H21.3895C21.0061 6.69822 20.6528 6.88397 20.4009 7.17613L20.3995 7.1775C20.1368 7.45875 19.9908 7.82937 19.9912 8.21425V8.38338C20.0352 8.6955 20.1562 8.97188 20.3363 9.20288L20.3335 9.19875C20.5082 9.42838 20.7474 9.59888 21.0238 9.6855L21.0334 9.68825V11.0248L17.3814 12.8178V7.271C17.6908 7.15825 17.9479 6.96025 18.128 6.7045L18.1308 6.699C18.3137 6.45288 18.425 6.1435 18.425 5.808V5.8025V5.775C18.425 5.3515 18.2504 4.96788 17.9685 4.69425C17.828 4.54954 17.6597 4.43456 17.4738 4.35614C17.2879 4.27771 17.0882 4.23746 16.8864 4.23775H16.8575H16.8589H16.8314C16.4079 4.23775 16.0243 4.41238 15.7507 4.69425C15.4688 4.96925 15.2942 5.3515 15.2942 5.77638V5.80525V5.80388V5.96613C15.3354 6.27275 15.4578 6.545 15.6379 6.76775L15.6352 6.765C15.818 6.98913 16.0532 7.16238 16.324 7.2655L16.335 7.26963V16.302L13.7583 14.9325V10.824V10.8144C13.7582 10.7362 13.7352 10.6597 13.6923 10.5944L13.6937 10.5958C13.655 10.5375 13.6113 10.4827 13.563 10.4321L11.7673 9.05988C11.8106 8.97447 11.843 8.88391 11.8635 8.79038L11.8649 8.78213C11.8855 8.69 11.8979 8.5855 11.8979 8.47688V8.47138V8.44388C11.8979 8.02038 11.7233 7.63675 11.4414 7.36313C11.3008 7.21895 11.1327 7.1044 10.9471 7.02624C10.7615 6.94807 10.5621 6.90787 10.3607 6.908H10.34H10.3414H10.3139C9.89041 6.908 9.50679 7.08263 9.23316 7.3645C8.95129 7.6395 8.77666 8.02175 8.77666 8.44663V8.4755V8.47413V8.50713C8.77666 8.9265 8.94854 9.306 9.22491 9.57963C9.49991 9.8615 9.88216 10.0361 10.307 10.0361H10.3359H10.3345H10.3552C10.49 10.0365 10.624 10.0137 10.7512 9.96875L10.7429 9.9715C10.8942 9.91513 11.0179 9.86013 11.1375 9.79963L11.1169 9.80925L12.7147 11.0811V15.2543C12.7142 15.3427 12.7433 15.4288 12.7972 15.499L12.7958 15.4976C12.8502 15.5727 12.9219 15.6335 13.0048 15.675L13.0075 15.6764L16.3337 17.4364V20.7625L10.758 18.1858L10.8557 16.1645V16.1315C10.8561 16.043 10.8271 15.9569 10.7732 15.8868L10.7745 15.8881C10.7201 15.8131 10.6484 15.7522 10.5655 15.7108L10.5628 15.7094L8.01766 14.3756C8.03961 14.3058 8.05074 14.233 8.05066 14.1598V13.8848C8.01066 13.5044 7.83141 13.1523 7.54741 12.8961L7.54604 12.8948C7.26667 12.6305 6.89661 12.4833 6.51204 12.4836H6.48729H6.48866H6.47904C6.05966 12.4836 5.68154 12.6583 5.41341 12.9401C5.12741 13.2151 4.94866 13.6015 4.94866 14.0291V14.0498V14.0484V14.2106C4.98854 14.6025 5.17416 14.9449 5.45191 15.1869L5.45329 15.1883C5.71866 15.4316 6.07341 15.5801 6.46391 15.5801H6.64404C6.79924 15.56 6.95154 15.5217 7.09779 15.466L7.08404 15.4701C7.22704 15.4151 7.35216 15.3436 7.46216 15.2556L7.45941 15.2584L9.80654 16.4684L9.74191 18.4896V18.5006C9.74191 18.6038 9.76529 18.7 9.80791 18.7866L9.80654 18.7825C9.85524 18.873 9.93548 18.9425 10.032 18.9778L10.0348 18.9791L16.3282 21.9134V31.3583C16.0458 31.3583 15.7685 31.3473 15.4963 31.3253L14.6644 31.2606L14.762 25.2601C14.7608 25.1664 14.7321 25.0751 14.6795 24.9975L14.6809 24.9989C14.6234 24.91 14.5391 24.8416 14.4403 24.8036L14.4375 24.8023L10.4913 22.9763V22.814V22.8044C10.4913 22.385 10.3167 22.0069 10.0348 21.7388C9.8942 21.594 9.72596 21.4791 9.54007 21.4006C9.35418 21.3222 9.15442 21.282 8.95266 21.2823H8.92379H8.92516H8.76841C8.39072 21.3193 8.04148 21.4994 7.79216 21.7855L7.79079 21.7869C7.53777 22.0685 7.39815 22.434 7.39891 22.8126V22.847V22.8456V22.8553C7.39891 23.2746 7.57354 23.6528 7.85541 23.9209C8.12354 24.2028 8.50166 24.3774 8.92104 24.3774H8.97466C9.18916 24.3774 9.39404 24.332 9.57829 24.2481L9.56866 24.2523C9.76116 24.1601 9.92754 24.0501 10.076 23.9195L10.0733 23.9223L13.7253 25.586V31.097C12.0081 30.7773 10.3622 30.1518 8.86604 29.2504L8.93204 29.2875C7.48799 28.4308 6.19892 27.3365 5.11916 26.0508L5.09991 26.0274C4.0362 24.7473 3.18901 23.3019 2.59191 21.7484L2.55616 21.6439C1.93586 20.0202 1.62074 18.2959 1.62666 16.5578V16.489V16.4051C1.62666 14.3509 2.05841 12.397 2.83666 10.6288L2.80091 10.7209C3.55797 8.95664 4.64223 7.35171 5.99641 5.99088C7.33119 4.66153 8.90217 3.59276 10.6288 2.83938L10.7264 2.80088C12.5213 2.01816 14.4594 1.61734 16.4175 1.62388H16.5014H16.4973H16.5853C18.6395 1.62388 20.5934 2.05563 22.3617 2.83388L22.2695 2.79813C24.033 3.55407 25.6379 4.63638 26.9995 5.98813C28.3313 7.32204 29.402 8.89315 30.1565 10.6205L30.195 10.7181C30.9375 12.3929 31.3693 14.3468 31.3693 16.4024V16.4945V16.4904V16.5784C31.3693 18.5639 30.9678 20.4559 30.2418 22.1774L30.2775 22.0825C29.5708 23.7973 28.5573 25.369 27.2869 26.7204L27.2938 26.7121C26.0462 28.032 24.5681 29.1131 22.9323 29.9021L22.8429 29.9406C21.2479 30.7216 19.3834 31.2221 17.4144 31.328L17.3787 31.3294L17.38 31.3363Z" fill="white"/>
</g>
<defs>
<clipPath id="clip0_183_3">
<rect width="33" height="33" fill="white"/>
</clipPath>
</defs>
</svg>
