<svg width="38" height="38" viewBox="0 0 38 38" fill="none" xmlns="http://www.w3.org/2000/svg">
<g filter="url(#filter0_d_183_4)">
<path fill-rule="evenodd" clip-rule="evenodd" d="M19 28.5C26.4557 28.5 32.5 22.4557 32.5 15C32.5 7.54425 26.4557 1.5 19 1.5C11.5443 1.5 5.5 7.54425 5.5 15C5.5 22.4557 11.5443 28.5 19 28.5ZM19 30C27.2845 30 34 23.2845 34 15C34 6.7155 27.2845 0 19 0C10.7155 0 4 6.7155 4 15C4 23.2845 10.7155 30 19 30Z" fill="url(#paint0_linear_183_4)"/>
<path d="M10 23.7226C10 22.9478 10.579 22.2931 11.35 22.2076C17.1363 21.5671 20.89 21.6248 26.6635 22.2218C26.9518 22.2521 27.2251 22.3657 27.4499 22.5487C27.6747 22.7317 27.8414 22.9763 27.9295 23.2524C28.0176 23.5286 28.0234 23.8245 27.9462 24.1039C27.8689 24.3833 27.712 24.6342 27.4945 24.8258C20.6808 30.7651 16.7868 30.6833 10.48 24.8318C10.1725 24.5468 10 24.1418 10 23.7233V23.7226Z" fill="url(#paint1_linear_183_4)"/>
<path fill-rule="evenodd" clip-rule="evenodd" d="M26.5863 22.9672C20.8585 22.3747 17.1588 22.3192 11.4318 22.9529C11.2432 22.9749 11.0694 23.0656 10.9437 23.2078C10.8179 23.3499 10.7489 23.5334 10.75 23.7232C10.75 23.9377 10.8393 24.1409 10.99 24.2819C14.116 27.1814 16.4845 28.4917 18.7998 28.4999C21.1233 28.5082 23.6193 27.2084 27.0018 24.2609C27.1092 24.1653 27.1866 24.0405 27.2244 23.9017C27.2623 23.7629 27.259 23.6161 27.215 23.4792C27.171 23.3422 27.0881 23.221 26.9765 23.1302C26.8649 23.0395 26.7293 22.9831 26.5863 22.9679V22.9672ZM11.2675 21.4619C17.1145 20.8147 20.923 20.8732 26.7415 21.4754C27.1752 21.5207 27.5863 21.6915 27.9245 21.9668C28.2627 22.2421 28.5133 22.6101 28.6455 23.0256C28.7778 23.4411 28.7861 23.8862 28.6693 24.3064C28.5525 24.7265 28.3157 25.1035 27.988 25.3912C24.5568 28.3822 21.6993 30.0112 18.7953 29.9999C15.883 29.9894 13.1515 28.3327 9.97075 25.3814C9.74302 25.1693 9.56147 24.9125 9.43746 24.6271C9.31345 24.3416 9.24963 24.0337 9.25 23.7224C9.24891 23.1633 9.45416 22.6233 9.82643 22.2061C10.1987 21.7888 10.7118 21.5236 11.2675 21.4612V21.4619Z" fill="url(#paint2_linear_183_4)"/>
<path d="M25 12C25 13.5913 24.3679 15.1174 23.2426 16.2426C22.1174 17.3679 20.5913 18 19 18C17.4087 18 15.8826 17.3679 14.7574 16.2426C13.6321 15.1174 13 13.5913 13 12C13 10.4087 13.6321 8.88258 14.7574 7.75736C15.8826 6.63214 17.4087 6 19 6C20.5913 6 22.1174 6.63214 23.2426 7.75736C24.3679 8.88258 25 10.4087 25 12V12Z" fill="url(#paint3_linear_183_4)"/>
<path fill-rule="evenodd" clip-rule="evenodd" d="M19 16.5C20.1935 16.5 21.3381 16.0259 22.182 15.182C23.0259 14.3381 23.5 13.1935 23.5 12C23.5 10.8065 23.0259 9.66193 22.182 8.81802C21.3381 7.97411 20.1935 7.5 19 7.5C17.8065 7.5 16.6619 7.97411 15.818 8.81802C14.9741 9.66193 14.5 10.8065 14.5 12C14.5 13.1935 14.9741 14.3381 15.818 15.182C16.6619 16.0259 17.8065 16.5 19 16.5V16.5ZM19 18C20.5913 18 22.1174 17.3679 23.2426 16.2426C24.3679 15.1174 25 13.5913 25 12C25 10.4087 24.3679 8.88258 23.2426 7.75736C22.1174 6.63214 20.5913 6 19 6C17.4087 6 15.8826 6.63214 14.7574 7.75736C13.6321 8.88258 13 10.4087 13 12C13 13.5913 13.6321 15.1174 14.7574 16.2426C15.8826 17.3679 17.4087 18 19 18V18Z" fill="url(#paint4_linear_183_4)"/>
</g>
<defs>
<filter id="filter0_d_183_4" x="0" y="0" width="38" height="38" filterUnits="userSpaceOnUse" color-interpolation-filters="sRGB">
<feFlood flood-opacity="0" result="BackgroundImageFix"/>
<feColorMatrix in="SourceAlpha" type="matrix" values="0 0 0 0 0 0 0 0 0 0 0 0 0 0 0 0 0 0 127 0" result="hardAlpha"/>
<feOffset dy="4"/>
<feGaussianBlur stdDeviation="2"/>
<feComposite in2="hardAlpha" operator="out"/>
<feColorMatrix type="matrix" values="0 0 0 0 0 0 0 0 0 0 0 0 0 0 0 0 0 0 0.25 0"/>
<feBlend mode="normal" in2="BackgroundImageFix" result="effect1_dropShadow_183_4"/>
<feBlend mode="normal" in="SourceGraphic" in2="effect1_dropShadow_183_4" result="shape"/>
</filter>
<linearGradient id="paint0_linear_183_4" x1="19" y1="0" x2="19" y2="30" gradientUnits="userSpaceOnUse">
<stop stop-color="#FF94E1"/>
<stop offset="1" stop-color="#65E3FF"/>
</linearGradient>
<linearGradient id="paint1_linear_183_4" x1="19.0001" y1="21.7503" x2="19.0001" y2="29.2504" gradientUnits="userSpaceOnUse">
<stop stop-color="#FF94E1"/>
<stop offset="1" stop-color="#65E3FF"/>
</linearGradient>
<linearGradient id="paint2_linear_183_4" x1="19.0006" y1="20.9997" x2="19.0006" y2="30" gradientUnits="userSpaceOnUse">
<stop stop-color="#FF94E1"/>
<stop offset="1" stop-color="#65E3FF"/>
</linearGradient>
<linearGradient id="paint3_linear_183_4" x1="19" y1="6" x2="19" y2="18" gradientUnits="userSpaceOnUse">
<stop stop-color="#FF94E1"/>
<stop offset="1" stop-color="#65E3FF"/>
</linearGradient>
<linearGradient id="paint4_linear_183_4" x1="19" y1="6" x2="19" y2="18" gradientUnits="userSpaceOnUse">
<stop stop-color="#FF94E1"/>
<stop offset="1" stop-color="#65E3FF"/>
</linearGradient>
</defs>
</svg>
