<svg width="122" height="41" viewBox="0 0 122 41" fill="none" xmlns="http://www.w3.org/2000/svg">
<rect width="122" height="41" rx="10" fill="url(#paint0_linear_54_205)"/>
<g filter="url(#filter0_d_54_205)">
<path d="M39.464 29.24C38.168 29.24 36.912 29.056 35.696 28.688C34.496 28.32 33.544 27.832 32.84 27.224L33.92 24.8C34.608 25.344 35.448 25.792 36.44 26.144C37.448 26.48 38.456 26.648 39.464 26.648C40.712 26.648 41.64 26.448 42.248 26.048C42.872 25.648 43.184 25.12 43.184 24.464C43.184 23.984 43.008 23.592 42.656 23.288C42.32 22.968 41.888 22.72 41.36 22.544C40.832 22.368 40.112 22.168 39.2 21.944C37.92 21.64 36.88 21.336 36.08 21.032C35.296 20.728 34.616 20.256 34.04 19.616C33.48 18.96 33.2 18.08 33.2 16.976C33.2 16.048 33.448 15.208 33.944 14.456C34.456 13.688 35.216 13.08 36.224 12.632C37.248 12.184 38.496 11.96 39.968 11.96C40.992 11.96 42 12.088 42.992 12.344C43.984 12.6 44.84 12.968 45.56 13.448L44.576 15.872C43.84 15.44 43.072 15.112 42.272 14.888C41.472 14.664 40.696 14.552 39.944 14.552C38.712 14.552 37.792 14.76 37.184 15.176C36.592 15.592 36.296 16.144 36.296 16.832C36.296 17.312 36.464 17.704 36.8 18.008C37.152 18.312 37.592 18.552 38.12 18.728C38.648 18.904 39.368 19.104 40.28 19.328C41.528 19.616 42.552 19.92 43.352 20.24C44.152 20.544 44.832 21.016 45.392 21.656C45.968 22.296 46.256 23.16 46.256 24.248C46.256 25.176 46 26.016 45.488 26.768C44.992 27.52 44.232 28.12 43.208 28.568C42.184 29.016 40.936 29.24 39.464 29.24ZM53.9578 16.04C55.8458 16.04 57.2858 16.496 58.2778 17.408C59.2858 18.304 59.7898 19.664 59.7898 21.488V29H56.9578V27.44C56.5898 28 56.0618 28.432 55.3738 28.736C54.7018 29.024 53.8858 29.168 52.9258 29.168C51.9658 29.168 51.1258 29.008 50.4058 28.688C49.6858 28.352 49.1258 27.896 48.7258 27.32C48.3418 26.728 48.1498 26.064 48.1498 25.328C48.1498 24.176 48.5738 23.256 49.4218 22.568C50.2858 21.864 51.6378 21.512 53.4778 21.512H56.7898V21.32C56.7898 20.424 56.5178 19.736 55.9738 19.256C55.4458 18.776 54.6538 18.536 53.5978 18.536C52.8778 18.536 52.1658 18.648 51.4618 18.872C50.7738 19.096 50.1898 19.408 49.7098 19.808L48.5338 17.624C49.2058 17.112 50.0138 16.72 50.9578 16.448C51.9018 16.176 52.9018 16.04 53.9578 16.04ZM53.5498 26.984C54.3018 26.984 54.9658 26.816 55.5418 26.48C56.1338 26.128 56.5498 25.632 56.7898 24.992V23.504H53.6938C51.9658 23.504 51.1018 24.072 51.1018 25.208C51.1018 25.752 51.3178 26.184 51.7498 26.504C52.1818 26.824 52.7818 26.984 53.5498 26.984ZM75.4055 16.184L69.9095 29H66.8135L61.3175 16.184H64.4375L68.4215 25.688L72.5255 16.184H75.4055ZM88.9769 22.664C88.9769 22.872 88.9609 23.168 88.9289 23.552H78.8729C79.0489 24.496 79.5049 25.248 80.2409 25.808C80.9929 26.352 81.9209 26.624 83.0249 26.624C84.4329 26.624 85.5929 26.16 86.5049 25.232L88.1129 27.08C87.5369 27.768 86.8089 28.288 85.9289 28.64C85.0489 28.992 84.0569 29.168 82.9529 29.168C81.5449 29.168 80.3049 28.888 79.2329 28.328C78.1609 27.768 77.3289 26.992 76.7369 26C76.1609 24.992 75.8729 23.856 75.8729 22.592C75.8729 21.344 76.1529 20.224 76.7129 19.232C77.2889 18.224 78.0809 17.44 79.0889 16.88C80.0969 16.32 81.2329 16.04 82.4969 16.04C83.7449 16.04 84.8569 16.32 85.8329 16.88C86.8249 17.424 87.5929 18.2 88.1369 19.208C88.6969 20.2 88.9769 21.352 88.9769 22.664ZM82.4969 18.44C81.5369 18.44 80.7209 18.728 80.0489 19.304C79.3929 19.864 78.9929 20.616 78.8489 21.56H86.1209C85.9929 20.632 85.6009 19.88 84.9449 19.304C84.2889 18.728 83.4729 18.44 82.4969 18.44Z" fill="white"/>
</g>
<defs>
<filter id="filter0_d_54_205" x="30.84" y="11.96" width="60.1369" height="21.28" filterUnits="userSpaceOnUse" color-interpolation-filters="sRGB">
<feFlood flood-opacity="0" result="BackgroundImageFix"/>
<feColorMatrix in="SourceAlpha" type="matrix" values="0 0 0 0 0 0 0 0 0 0 0 0 0 0 0 0 0 0 127 0" result="hardAlpha"/>
<feOffset dy="2"/>
<feGaussianBlur stdDeviation="1"/>
<feComposite in2="hardAlpha" operator="out"/>
<feColorMatrix type="matrix" values="0 0 0 0 0.2625 0 0 0 0 0.2625 0 0 0 0 0.2625 0 0 0 0.25 0"/>
<feBlend mode="normal" in2="BackgroundImageFix" result="effect1_dropShadow_54_205"/>
<feBlend mode="normal" in="SourceGraphic" in2="effect1_dropShadow_54_205" result="shape"/>
</filter>
<linearGradient id="paint0_linear_54_205" x1="94" y1="-7.33859e-06" x2="10" y2="41" gradientUnits="userSpaceOnUse">
<stop stop-color="#FF94E1"/>
<stop offset="1" stop-color="#65E3FF"/>
</linearGradient>
</defs>
</svg>
